<mxfile host="app.diagrams.net" modified="2023-11-18T11:48:27.221Z" agent="Mozilla/5.0 (X11; Ubuntu; Linux x86_64; rv:109.0) Gecko/20100101 Firefox/119.0" etag="VpxyGAC1H1dZrnIgqXaV" version="22.1.3" type="device">
  <diagram name="Page-1" id="6C0mI_dqQbfxBVWWowV6">
    <mxGraphModel dx="1434" dy="773" grid="1" gridSize="10" guides="1" tooltips="1" connect="1" arrows="1" fold="1" page="1" pageScale="1" pageWidth="850" pageHeight="1100" math="0" shadow="0">
      <root>
        <mxCell id="0" />
        <mxCell id="1" parent="0" />
        <mxCell id="3mrKRfD7qNLOJmqMGe2p-8" value="" style="shape=table;startSize=0;container=1;collapsible=0;childLayout=tableLayout;" parent="1" vertex="1">
          <mxGeometry x="50" y="220" width="110" height="240" as="geometry" />
        </mxCell>
        <mxCell id="3mrKRfD7qNLOJmqMGe2p-9" value="" style="shape=tableRow;horizontal=0;startSize=0;swimlaneHead=0;swimlaneBody=0;strokeColor=inherit;top=0;left=0;bottom=0;right=0;collapsible=0;dropTarget=0;fillColor=none;points=[[0,0.5],[1,0.5]];portConstraint=eastwest;" parent="3mrKRfD7qNLOJmqMGe2p-8" vertex="1">
          <mxGeometry width="110" height="40" as="geometry" />
        </mxCell>
        <mxCell id="3mrKRfD7qNLOJmqMGe2p-10" value="&lt;font style=&quot;font-size: 14px;&quot;&gt;user_id&lt;/font&gt;" style="shape=partialRectangle;html=1;whiteSpace=wrap;connectable=0;strokeColor=#A50040;overflow=hidden;fillColor=#241f31;top=0;left=0;bottom=0;right=0;pointerEvents=1;fontColor=#ffffff;" parent="3mrKRfD7qNLOJmqMGe2p-9" vertex="1">
          <mxGeometry width="110" height="40" as="geometry">
            <mxRectangle width="110" height="40" as="alternateBounds" />
          </mxGeometry>
        </mxCell>
        <mxCell id="3mrKRfD7qNLOJmqMGe2p-11" value="" style="shape=tableRow;horizontal=0;startSize=0;swimlaneHead=0;swimlaneBody=0;strokeColor=inherit;top=0;left=0;bottom=0;right=0;collapsible=0;dropTarget=0;fillColor=none;points=[[0,0.5],[1,0.5]];portConstraint=eastwest;" parent="3mrKRfD7qNLOJmqMGe2p-8" vertex="1">
          <mxGeometry y="40" width="110" height="40" as="geometry" />
        </mxCell>
        <mxCell id="3mrKRfD7qNLOJmqMGe2p-12" value="&lt;font style=&quot;font-size: 14px;&quot;&gt;order_ts&lt;/font&gt;" style="shape=partialRectangle;html=1;whiteSpace=wrap;connectable=0;strokeColor=inherit;overflow=hidden;fillColor=none;top=0;left=0;bottom=0;right=0;pointerEvents=1;" parent="3mrKRfD7qNLOJmqMGe2p-11" vertex="1">
          <mxGeometry width="110" height="40" as="geometry">
            <mxRectangle width="110" height="40" as="alternateBounds" />
          </mxGeometry>
        </mxCell>
        <mxCell id="3mrKRfD7qNLOJmqMGe2p-13" value="" style="shape=tableRow;horizontal=0;startSize=0;swimlaneHead=0;swimlaneBody=0;strokeColor=inherit;top=0;left=0;bottom=0;right=0;collapsible=0;dropTarget=0;fillColor=none;points=[[0,0.5],[1,0.5]];portConstraint=eastwest;" parent="3mrKRfD7qNLOJmqMGe2p-8" vertex="1">
          <mxGeometry y="80" width="110" height="40" as="geometry" />
        </mxCell>
        <mxCell id="3mrKRfD7qNLOJmqMGe2p-14" value="&lt;font style=&quot;font-size: 14px;&quot;&gt;recency&lt;/font&gt;" style="shape=partialRectangle;html=1;whiteSpace=wrap;connectable=0;strokeColor=inherit;overflow=hidden;fillColor=none;top=0;left=0;bottom=0;right=0;pointerEvents=1;" parent="3mrKRfD7qNLOJmqMGe2p-13" vertex="1">
          <mxGeometry width="110" height="40" as="geometry">
            <mxRectangle width="110" height="40" as="alternateBounds" />
          </mxGeometry>
        </mxCell>
        <mxCell id="3mrKRfD7qNLOJmqMGe2p-15" value="" style="shape=tableRow;horizontal=0;startSize=0;swimlaneHead=0;swimlaneBody=0;strokeColor=inherit;top=0;left=0;bottom=0;right=0;collapsible=0;dropTarget=0;fillColor=none;points=[[0,0.5],[1,0.5]];portConstraint=eastwest;" parent="3mrKRfD7qNLOJmqMGe2p-8" vertex="1">
          <mxGeometry y="120" width="110" height="40" as="geometry" />
        </mxCell>
        <mxCell id="3mrKRfD7qNLOJmqMGe2p-16" value="&lt;font style=&quot;font-size: 14px;&quot;&gt;frequency&lt;/font&gt;" style="shape=partialRectangle;html=1;whiteSpace=wrap;connectable=0;strokeColor=inherit;overflow=hidden;fillColor=none;top=0;left=0;bottom=0;right=0;pointerEvents=1;" parent="3mrKRfD7qNLOJmqMGe2p-15" vertex="1">
          <mxGeometry width="110" height="40" as="geometry">
            <mxRectangle width="110" height="40" as="alternateBounds" />
          </mxGeometry>
        </mxCell>
        <mxCell id="3mrKRfD7qNLOJmqMGe2p-19" style="shape=tableRow;horizontal=0;startSize=0;swimlaneHead=0;swimlaneBody=0;strokeColor=inherit;top=0;left=0;bottom=0;right=0;collapsible=0;dropTarget=0;fillColor=none;points=[[0,0.5],[1,0.5]];portConstraint=eastwest;" parent="3mrKRfD7qNLOJmqMGe2p-8" vertex="1">
          <mxGeometry y="160" width="110" height="40" as="geometry" />
        </mxCell>
        <mxCell id="3mrKRfD7qNLOJmqMGe2p-20" value="&lt;font style=&quot;font-size: 14px;&quot;&gt;monetary_value&lt;/font&gt;" style="shape=partialRectangle;html=1;whiteSpace=wrap;connectable=0;strokeColor=inherit;overflow=hidden;fillColor=none;top=0;left=0;bottom=0;right=0;pointerEvents=1;" parent="3mrKRfD7qNLOJmqMGe2p-19" vertex="1">
          <mxGeometry width="110" height="40" as="geometry">
            <mxRectangle width="110" height="40" as="alternateBounds" />
          </mxGeometry>
        </mxCell>
        <mxCell id="3mrKRfD7qNLOJmqMGe2p-21" style="shape=tableRow;horizontal=0;startSize=0;swimlaneHead=0;swimlaneBody=0;strokeColor=inherit;top=0;left=0;bottom=0;right=0;collapsible=0;dropTarget=0;fillColor=none;points=[[0,0.5],[1,0.5]];portConstraint=eastwest;" parent="3mrKRfD7qNLOJmqMGe2p-8" vertex="1">
          <mxGeometry y="200" width="110" height="40" as="geometry" />
        </mxCell>
        <mxCell id="3mrKRfD7qNLOJmqMGe2p-22" value="&lt;font style=&quot;font-size: 14px;&quot;&gt;order_status&lt;/font&gt;" style="shape=partialRectangle;html=1;whiteSpace=wrap;connectable=0;strokeColor=inherit;overflow=hidden;fillColor=none;top=0;left=0;bottom=0;right=0;pointerEvents=1;" parent="3mrKRfD7qNLOJmqMGe2p-21" vertex="1">
          <mxGeometry width="110" height="40" as="geometry">
            <mxRectangle width="110" height="40" as="alternateBounds" />
          </mxGeometry>
        </mxCell>
        <mxCell id="3mrKRfD7qNLOJmqMGe2p-17" value="&lt;font style=&quot;font-size: 14px;&quot;&gt;production.users&lt;/font&gt;" style="rounded=1;whiteSpace=wrap;html=1;" parent="1" vertex="1">
          <mxGeometry x="305" y="220" width="120" height="60" as="geometry" />
        </mxCell>
        <mxCell id="3mrKRfD7qNLOJmqMGe2p-18" value="" style="endArrow=classic;html=1;rounded=1;exitX=1;exitY=0.5;exitDx=0;exitDy=0;entryX=0;entryY=0.333;entryDx=0;entryDy=0;entryPerimeter=0;" parent="1" source="3mrKRfD7qNLOJmqMGe2p-9" target="3mrKRfD7qNLOJmqMGe2p-17" edge="1">
          <mxGeometry width="50" height="50" relative="1" as="geometry">
            <mxPoint x="400" y="450" as="sourcePoint" />
            <mxPoint x="450" y="400" as="targetPoint" />
            <Array as="points" />
          </mxGeometry>
        </mxCell>
        <mxCell id="3mrKRfD7qNLOJmqMGe2p-31" value="&lt;font style=&quot;font-size: 14px;&quot;&gt;analysis.orders&lt;/font&gt;" style="rounded=1;whiteSpace=wrap;html=1;" parent="1" vertex="1">
          <mxGeometry x="300" y="336" width="120" height="60" as="geometry" />
        </mxCell>
        <mxCell id="3mrKRfD7qNLOJmqMGe2p-32" value="" style="endArrow=classic;html=1;rounded=0;exitX=1;exitY=0.5;exitDx=0;exitDy=0;entryX=0.017;entryY=0.383;entryDx=0;entryDy=0;entryPerimeter=0;" parent="1" source="3mrKRfD7qNLOJmqMGe2p-15" target="3mrKRfD7qNLOJmqMGe2p-31" edge="1">
          <mxGeometry width="50" height="50" relative="1" as="geometry">
            <mxPoint x="160" y="389.5" as="sourcePoint" />
            <mxPoint x="290" y="360" as="targetPoint" />
          </mxGeometry>
        </mxCell>
        <mxCell id="3mrKRfD7qNLOJmqMGe2p-35" value="LEFT JOIN" style="rounded=1;whiteSpace=wrap;html=1;fillColor=#d5e8d4;strokeColor=#82b366;" parent="1" vertex="1">
          <mxGeometry x="460" y="270" width="120" height="60" as="geometry" />
        </mxCell>
        <mxCell id="3mrKRfD7qNLOJmqMGe2p-62" value="" style="ellipse;whiteSpace=wrap;html=1;aspect=fixed;" parent="1" vertex="1">
          <mxGeometry x="532.5" y="336" width="55" height="55" as="geometry" />
        </mxCell>
        <mxCell id="3mrKRfD7qNLOJmqMGe2p-63" value="" style="ellipse;whiteSpace=wrap;html=1;aspect=fixed;fillColor=#ffbe6f;" parent="1" vertex="1">
          <mxGeometry x="500" y="336" width="55" height="55" as="geometry" />
        </mxCell>
        <mxCell id="3mrKRfD7qNLOJmqMGe2p-64" value="" style="whiteSpace=wrap;html=1;shape=mxgraph.basic.pointed_oval;fillColor=#ffbe6f;fontColor=#ffffff;strokeColor=#001DBC;" parent="1" vertex="1">
          <mxGeometry x="526" y="342" width="39" height="43" as="geometry" />
        </mxCell>
        <mxCell id="3mrKRfD7qNLOJmqMGe2p-67" value="&lt;font color=&quot;#ffffff&quot;&gt;OUT&lt;/font&gt;" style="rounded=1;whiteSpace=wrap;html=1;fillColor=#241f31;" parent="1" vertex="1">
          <mxGeometry x="660" y="270" width="120" height="60" as="geometry" />
        </mxCell>
        <mxCell id="3mrKRfD7qNLOJmqMGe2p-69" value="" style="endArrow=none;html=1;rounded=0;exitX=1;exitY=0.5;exitDx=0;exitDy=0;" parent="1" source="3mrKRfD7qNLOJmqMGe2p-11" edge="1">
          <mxGeometry width="50" height="50" relative="1" as="geometry">
            <mxPoint x="160" y="270" as="sourcePoint" />
            <mxPoint x="280" y="280" as="targetPoint" />
          </mxGeometry>
        </mxCell>
        <mxCell id="3mrKRfD7qNLOJmqMGe2p-71" value="" style="endArrow=none;html=1;rounded=0;exitX=1;exitY=0.417;exitDx=0;exitDy=0;exitPerimeter=0;" parent="1" source="3mrKRfD7qNLOJmqMGe2p-8" edge="1">
          <mxGeometry width="50" height="50" relative="1" as="geometry">
            <mxPoint x="240" y="465" as="sourcePoint" />
            <mxPoint x="260" y="320" as="targetPoint" />
          </mxGeometry>
        </mxCell>
        <mxCell id="3mrKRfD7qNLOJmqMGe2p-72" value="" style="endArrow=none;html=1;rounded=0;" parent="1" edge="1">
          <mxGeometry width="50" height="50" relative="1" as="geometry">
            <mxPoint x="280" y="320" as="sourcePoint" />
            <mxPoint x="260" y="320" as="targetPoint" />
          </mxGeometry>
        </mxCell>
        <mxCell id="3mrKRfD7qNLOJmqMGe2p-74" value="" style="endArrow=none;html=1;rounded=0;exitX=1;exitY=0.5;exitDx=0;exitDy=0;" parent="1" edge="1">
          <mxGeometry width="50" height="50" relative="1" as="geometry">
            <mxPoint x="160" y="400" as="sourcePoint" />
            <mxPoint x="280" y="400" as="targetPoint" />
          </mxGeometry>
        </mxCell>
        <mxCell id="3mrKRfD7qNLOJmqMGe2p-75" value="" style="endArrow=none;html=1;rounded=0;exitX=1;exitY=0.5;exitDx=0;exitDy=0;" parent="1" edge="1">
          <mxGeometry width="50" height="50" relative="1" as="geometry">
            <mxPoint x="160" y="440" as="sourcePoint" />
            <mxPoint x="280" y="440" as="targetPoint" />
          </mxGeometry>
        </mxCell>
        <mxCell id="3mrKRfD7qNLOJmqMGe2p-76" value="" style="endArrow=none;html=1;rounded=0;" parent="1" edge="1">
          <mxGeometry width="50" height="50" relative="1" as="geometry">
            <mxPoint x="280" y="280" as="sourcePoint" />
            <mxPoint x="280" y="440" as="targetPoint" />
            <Array as="points">
              <mxPoint x="280" y="280" />
            </Array>
          </mxGeometry>
        </mxCell>
        <mxCell id="Eyx4ACl6P4rFmHqFubHU-54" value="" style="endArrow=classic;html=1;rounded=0;entryX=0.5;entryY=0;entryDx=0;entryDy=0;" edge="1" parent="1" target="3mrKRfD7qNLOJmqMGe2p-35">
          <mxGeometry width="50" height="50" relative="1" as="geometry">
            <mxPoint x="430" y="240" as="sourcePoint" />
            <mxPoint x="520" y="250" as="targetPoint" />
            <Array as="points">
              <mxPoint x="440" y="240" />
              <mxPoint x="520" y="240" />
              <mxPoint x="520" y="250" />
            </Array>
          </mxGeometry>
        </mxCell>
        <mxCell id="Eyx4ACl6P4rFmHqFubHU-59" value="" style="endArrow=classic;html=1;rounded=0;exitX=0.5;exitY=0;exitDx=0;exitDy=0;entryX=0;entryY=0.5;entryDx=0;entryDy=0;" edge="1" parent="1" source="3mrKRfD7qNLOJmqMGe2p-31" target="3mrKRfD7qNLOJmqMGe2p-35">
          <mxGeometry width="50" height="50" relative="1" as="geometry">
            <mxPoint x="400" y="430" as="sourcePoint" />
            <mxPoint x="440" y="300" as="targetPoint" />
            <Array as="points">
              <mxPoint x="360" y="300" />
            </Array>
          </mxGeometry>
        </mxCell>
        <mxCell id="Eyx4ACl6P4rFmHqFubHU-67" value="" style="endArrow=classic;html=1;rounded=0;exitX=1;exitY=0.5;exitDx=0;exitDy=0;entryX=0;entryY=0.5;entryDx=0;entryDy=0;" edge="1" parent="1" source="3mrKRfD7qNLOJmqMGe2p-35" target="3mrKRfD7qNLOJmqMGe2p-67">
          <mxGeometry width="50" height="50" relative="1" as="geometry">
            <mxPoint x="560" y="610" as="sourcePoint" />
            <mxPoint x="610" y="560" as="targetPoint" />
          </mxGeometry>
        </mxCell>
      </root>
    </mxGraphModel>
  </diagram>
</mxfile>
